# xmcd
#
# Track frame offsets:
#       183
#       19068
#       29650
#       46175
#       59010
#       74663
#       94310
#       110018
#       122710
#       136513
#       145503
#
# Disc length: 2102 seconds
#
# Revision: 1
# Processed by: cddbd v1.4PL0 Copyright (c) Steve Scherf et al.
# Submitted via: MusiCat 1.1
#
DISCID=9f08340b
DTITLE=Various Artist - Don't shoot
DYEAR=1986
DGENRE=
TTITLE0=Danny and Dusty - Bend in the road
TTITLE1=Top Jimmy and The rhythm Pigs - Hello Walls
TTITLE2=Stephen McCarty - I'll get out somehow
TTITLE3=John Doe - Wreckin'Ball
TTITLE4=Julie Christensen - Almost Persuaded
TTITLE5=Divine Horsemen - Tears Fall away
TTITLE6=Tony Gilkyson - Tear it Down
TTITLE7=Jack Waterson - Never get out of this world alive
TTITLE8=The Band of ..... Blacky Ranchette - Blind Justice
TTITLE9=Clay Allison - Freight Train
TTITLE10=The Romans - Tear it all to pieces
EXTD=1986\nDemon Records Inc.\n\nsubmitted by Stamppot
EXTT0=
EXTT1=
EXTT2=
EXTT3=
EXTT4=
EXTT5=
EXTT6=
EXTT7=
EXTT8=
EXTT9=
EXTT10=
PLAYORDER=
